<svg version="1.1" id="Layer_1" xmlns="http://www.w3.org/2000/svg" xmlns:xlink="http://www.w3.org/1999/xlink" x="0px" y="0px"
	 width="100%" viewBox="0 0 391 87" enable-background="new 0 0 391 87" xml:space="preserve">
<path fill="#242323" opacity="1.000000" stroke="none" 
	d="
M296.000000,88.000000 
	C197.333344,88.000000 99.166687,88.000000 1.000026,88.000000 
	C1.000018,59.000015 1.000018,30.000031 1.000009,1.000034 
	C131.333298,1.000023 261.666595,1.000023 391.999939,1.000011 
	C391.999939,29.999968 391.999939,58.999935 391.999969,87.999954 
	C360.166656,88.000000 328.333344,88.000000 296.000000,88.000000 
M272.914703,57.778534 
	C272.914703,57.778534 272.636017,57.776562 272.636017,57.776562 
	C272.636017,57.776562 272.969360,58.022614 273.000702,58.660908 
	C273.376221,59.227413 273.751740,59.793919 274.127258,60.360413 
	C274.319458,60.150959 274.699310,59.782490 274.676361,59.755402 
	C274.152069,59.136833 273.583832,58.555527 272.914703,57.778534 
M271.104828,75.967834 
	C266.854706,76.369850 262.604614,76.771866 257.698120,77.123604 
	C251.132248,73.753967 247.863434,68.402756 248.842606,61.005676 
	C256.259277,59.547764 263.681000,58.113926 271.079376,56.568565 
	C271.496979,56.481342 271.723145,55.477791 272.858124,54.958584 
	C274.671692,54.958584 276.485291,54.958584 278.377502,54.958584 
	C276.408478,47.028221 269.068085,41.949337 263.697876,43.385288 
	C266.146332,46.270237 268.932800,49.553421 270.920959,53.097569 
	C262.977966,54.586613 256.144531,60.502495 247.234436,58.217136 
	C247.890594,54.789127 248.546768,51.361118 249.782547,47.657059 
	C250.486801,46.787327 251.191040,45.917591 251.895294,45.047859 
	C251.463287,44.722763 251.031296,44.397667 250.599304,44.072575 
	C249.728699,45.259537 248.858109,46.446499 247.366699,47.982574 
	C241.651749,54.259022 240.310852,61.378147 243.699203,69.146545 
	C246.769089,76.184776 252.469269,79.625412 260.559235,80.553566 
	C264.392487,79.049294 268.225769,77.545021 272.245422,75.917328 
	C272.245422,75.917328 272.235352,75.613472 272.235352,75.613472 
	C272.235352,75.613472 271.953369,75.933136 271.104828,75.967834 
M380.974670,65.244942 
	C378.974945,61.860668 376.975220,58.476395 375.824249,54.987778 
	C377.755829,54.987778 379.687408,54.987778 381.764709,54.987778 
	C379.206238,46.582973 372.142395,41.879295 366.330231,43.299015 
	C368.690674,45.775982 371.439819,48.660797 373.825684,52.232880 
	C371.168549,53.524410 368.511414,54.815941 365.854279,56.107471 
	C371.535339,55.155380 375.280823,57.298740 377.567535,62.280437 
	C378.121460,63.487118 378.525574,64.762573 379.103912,66.556778 
	C379.417511,66.846214 379.731110,67.135643 380.044769,67.425087 
	C380.363800,66.951790 380.682861,66.478493 380.974670,65.244942 
M116.997711,43.655563 
	C127.950958,49.311981 131.774979,62.228996 125.278160,74.123528 
	C121.169891,78.281776 116.177170,78.044968 110.408760,76.709473 
	C100.779785,68.466721 98.625099,57.880539 104.965614,46.870075 
	C105.300911,46.030403 105.636215,45.190727 105.971512,44.351051 
	C104.980286,44.862171 103.989059,45.373291 102.550842,46.395790 
	C96.866135,51.683769 94.666946,58.096542 96.648026,65.673317 
	C98.627838,73.245193 104.001801,77.491379 111.197258,79.707954 
	C111.733704,79.873199 112.510963,79.256668 113.786743,79.094383 
	C119.641136,80.836739 124.117371,78.459579 128.618149,73.974556 
	C138.707138,61.866833 133.838318,45.646694 118.658791,41.862129 
	C115.508774,40.368206 112.556648,40.890015 109.609192,41.459370 
	C109.641670,41.958538 109.674149,42.457706 109.706627,42.956875 
	C112.083557,42.956875 114.460480,42.956875 116.997711,43.655563 
M360.823456,77.075775 
	C354.327820,73.687469 351.166107,68.284966 351.878845,61.006332 
	C355.862610,60.752636 360.412567,62.334862 363.357788,58.116482 
	C358.978210,58.428627 354.936737,58.716671 350.613312,58.189064 
	C351.131500,54.866264 351.649719,51.543465 352.198792,48.022625 
	C346.998535,50.466084 344.145020,57.551819 345.401184,64.216660 
	C347.165436,73.577461 353.800140,79.559410 363.559845,80.560310 
	C367.006073,79.865944 371.100006,80.785225 373.739349,77.143951 
	C369.274170,77.143951 365.379974,77.143951 360.823456,77.075775 
M217.739395,68.717796 
	C212.888275,54.477108 208.037155,40.236423 203.048065,25.590759 
	C201.474075,25.590759 198.970932,25.590759 196.775970,25.590759 
	C202.644791,42.586952 208.511703,59.299744 214.139313,76.092735 
	C215.371857,79.770691 217.229156,80.838142 221.169144,79.263573 
	C220.098511,75.986984 219.034119,72.729485 217.739395,68.717796 
M64.023201,72.210571 
	C64.023201,56.213947 64.023201,40.217327 64.023201,23.671146 
	C61.228039,24.746403 59.148342,25.546431 57.798485,26.065699 
	C57.798485,44.394791 57.798485,61.985497 57.798485,79.669083 
	C59.961578,79.669083 62.641575,79.669083 65.097534,79.669083 
	C64.712204,77.304329 64.368927,75.197716 64.023201,72.210571 
M45.855328,60.614201 
	C50.088406,64.074959 51.827110,68.478882 51.019226,74.202042 
	C52.513443,72.472801 53.646210,70.717926 53.963432,68.826294 
	C55.090252,62.107006 52.200176,57.060661 46.493198,53.806789 
	C42.465885,51.510586 38.028194,49.947262 33.884247,47.839439 
	C27.576317,44.630905 22.803259,40.327835 23.946407,32.282505 
	C23.987553,31.992916 23.497108,31.627796 22.947447,30.880598 
	C22.187166,32.390873 21.442268,33.472366 21.072851,34.669704 
	C18.843466,41.895470 22.466002,48.750271 30.591518,52.823242 
	C35.484856,55.276062 40.385799,57.713707 45.855328,60.614201 
M166.605469,46.382736 
	C166.326721,45.105942 166.047958,43.829147 165.807114,42.725937 
	C163.172882,42.725937 160.688400,42.725937 158.564880,42.725937 
	C163.342072,53.963863 168.221588,64.872643 172.575821,75.987206 
	C174.149826,80.004974 176.248184,80.637383 180.114670,79.427834 
	C175.610809,68.459869 171.236221,57.806721 166.605469,46.382736 
M152.545837,79.344368 
	C154.373428,79.550613 156.201035,79.756859 158.578552,80.025162 
	C153.352737,67.045021 148.445999,54.857388 143.483871,42.532211 
	C141.517487,42.532211 139.106644,42.532211 137.043533,42.532211 
	C142.099289,54.631199 147.117172,66.639526 152.545837,79.344368 
M83.728104,52.161205 
	C85.779411,61.264820 87.928787,70.360741 85.853516,79.721786 
	C88.499290,79.721786 91.099144,79.721786 93.227547,79.721786 
	C92.796318,75.942505 92.527184,72.318352 91.942810,68.745773 
	C90.956238,62.714279 90.349319,56.531414 88.513329,50.751926 
	C86.462921,44.297455 82.538818,42.543579 77.062805,43.186356 
	C78.901245,45.580971 81.149910,48.509911 83.728104,52.161205 
M342.096252,65.699928 
	C338.958160,63.439091 336.102295,60.477066 332.618591,59.074932 
	C326.786987,56.727814 320.472137,55.506439 317.562653,48.633152 
	C314.921173,54.083843 316.302948,58.796303 321.890503,61.857224 
	C325.913177,64.060890 330.497742,65.225418 334.794495,66.946350 
	C338.334259,68.364090 341.120361,70.359222 339.343964,75.606071 
	C343.088257,72.791138 343.443176,69.813660 342.096252,65.699928 
M288.202820,47.033031 
	C288.098053,45.580837 287.993317,44.128643 287.877258,42.519360 
	C286.628143,42.441944 285.644592,42.305691 284.667175,42.340668 
	C283.596497,42.378986 282.531464,42.575382 282.040833,42.633984 
	C282.040833,55.284901 282.040833,67.520500 282.040833,79.707733 
	C284.329346,79.707733 286.908997,79.707733 289.412964,79.707733 
	C288.974365,77.893326 288.265564,76.285919 288.248566,74.671242 
	C288.154205,65.688362 288.227661,56.703720 288.202820,47.033031 
M17.962070,70.556061 
	C23.666466,76.654472 27.448332,78.833900 30.871283,78.376228 
	C26.791571,73.024704 22.550680,67.461746 17.531868,60.878365 
	C17.531868,64.504799 17.531868,67.255959 17.962070,70.556061 
M309.074127,50.402554 
	C306.382965,42.650101 303.226379,41.292404 293.217010,43.582176 
	C302.931152,45.401665 304.881134,47.914909 302.412170,56.416279 
	C304.589813,55.614731 306.510681,55.194580 308.074585,54.208393 
	C308.831573,53.731049 308.918610,52.191311 309.074127,50.402554 
M315.876373,70.589226 
	C315.419678,69.816452 314.962982,69.043678 313.840302,67.144051 
	C313.472687,71.116470 312.520142,74.034531 313.163269,76.543549 
	C313.800842,79.030746 323.791199,81.165405 326.177765,80.305244 
	C322.987701,77.418877 319.578003,74.333778 315.876373,70.589226 
M50.094841,37.385086 
	C50.679459,38.614159 51.264080,39.843231 51.999424,41.389183 
	C54.565456,36.977505 54.562687,33.321877 50.990009,30.230972 
	C48.247826,27.858570 45.650463,24.833872 42.092987,25.998983 
	C44.704418,29.603064 47.280472,33.158318 50.094841,37.385086 
M337.692688,51.865868 
	C338.290131,53.039516 338.887543,54.213169 339.484955,55.386822 
	C339.915192,55.310841 340.345398,55.234859 340.775635,55.158878 
	C340.567627,52.094090 341.496582,48.083515 339.904755,46.169861 
	C336.977936,42.651375 332.272736,42.088978 328.504761,43.172623 
	C331.364044,45.807705 334.330444,48.541500 337.692688,51.865868 
M274.916718,70.525551 
	C275.079987,71.257919 275.243286,71.990280 275.629272,73.721497 
	C277.871429,69.647781 279.005768,66.694199 276.952545,63.747467 
	C276.293182,63.742130 275.633789,63.736797 274.974426,63.731464 
	C274.974426,65.747414 274.974426,67.763359 274.916718,70.525551 
M375.554596,75.696846 
	C379.986420,75.677551 379.651245,72.753433 379.548737,68.359573 
	C377.677917,71.366310 376.516418,73.233070 375.554596,75.696846 
M362.925781,42.714764 
	C362.544586,42.825783 362.163361,42.936802 361.782166,43.047825 
	C361.874786,43.300442 361.967407,43.553059 362.060028,43.805664 
	C362.446869,43.554127 362.833710,43.302593 362.925781,42.714764 
M254.257050,43.520958 
	C254.096085,43.529739 253.935104,43.538521 253.774139,43.547298 
	C253.881775,43.597397 253.989410,43.647495 254.257050,43.520958 
M353.491058,46.548870 
	C353.491058,46.548870 353.461334,46.485748 353.491058,46.548870 
z"/>
<path fill="#F13030" opacity="1.000000" stroke="none" 
	d="
M217.854568,69.094894 
	C219.034119,72.729485 220.098511,75.986984 221.169144,79.263573 
	C217.229156,80.838142 215.371857,79.770691 214.139313,76.092735 
	C208.511703,59.299744 202.644791,42.586952 196.775970,25.590759 
	C198.970932,25.590759 201.474075,25.590759 203.048065,25.590759 
	C208.037155,40.236423 212.888275,54.477108 217.854568,69.094894 
z"/>
<path fill="#ECECEC" opacity="1.000000" stroke="none" 
	d="
M64.024429,72.650833 
	C64.368927,75.197716 64.712204,77.304329 65.097534,79.669083 
	C62.641575,79.669083 59.961578,79.669083 57.798485,79.669083 
	C57.798485,61.985497 57.798485,44.394791 57.798485,26.065699 
	C59.148342,25.546431 61.228039,24.746403 64.023201,23.671146 
	C64.023201,40.217327 64.023201,56.213947 64.024429,72.650833 
z"/>
<path fill="#F23030" opacity="1.000000" stroke="none" 
	d="
M45.569328,60.386185 
	C40.385799,57.713707 35.484856,55.276062 30.591518,52.823242 
	C22.466002,48.750271 18.843466,41.895470 21.072851,34.669704 
	C21.442268,33.472366 22.187166,32.390873 22.947447,30.880598 
	C23.497108,31.627796 23.987553,31.992916 23.946407,32.282505 
	C22.803259,40.327835 27.576317,44.630905 33.884247,47.839439 
	C38.028194,49.947262 42.465885,51.510586 46.493198,53.806789 
	C52.200176,57.060661 55.090252,62.107006 53.963432,68.826294 
	C53.646210,70.717926 52.513443,72.472801 51.019226,74.202042 
	C51.827110,68.478882 50.088406,64.074959 45.569328,60.386185 
z"/>
<path fill="#EFEFEF" opacity="1.000000" stroke="none" 
	d="
M166.733551,46.768154 
	C171.236221,57.806721 175.610809,68.459869 180.114670,79.427834 
	C176.248184,80.637383 174.149826,80.004974 172.575821,75.987206 
	C168.221588,64.872643 163.342072,53.963863 158.564880,42.725937 
	C160.688400,42.725937 163.172882,42.725937 165.807114,42.725937 
	C166.047958,43.829147 166.326721,45.105942 166.733551,46.768154 
z"/>
<path fill="#EFEFEF" opacity="1.000000" stroke="none" 
	d="
M152.340454,78.996117 
	C147.117172,66.639526 142.099289,54.631199 137.043533,42.532211 
	C139.106644,42.532211 141.517487,42.532211 143.483871,42.532211 
	C148.445999,54.857388 153.352737,67.045021 158.578552,80.025162 
	C156.201035,79.756859 154.373428,79.550613 152.340454,78.996117 
z"/>
<path fill="#F1F1F1" opacity="1.000000" stroke="none" 
	d="
M83.563339,51.800026 
	C81.149910,48.509911 78.901245,45.580971 77.062805,43.186356 
	C82.538818,42.543579 86.462921,44.297455 88.513329,50.751926 
	C90.349319,56.531414 90.956238,62.714279 91.942810,68.745773 
	C92.527184,72.318352 92.796318,75.942505 93.227547,79.721786 
	C91.099144,79.721786 88.499290,79.721786 85.853516,79.721786 
	C87.928787,70.360741 85.779411,61.264820 83.563339,51.800026 
z"/>
<path fill="#F1F1F1" opacity="1.000000" stroke="none" 
	d="
M342.240845,66.054337 
	C343.443176,69.813660 343.088257,72.791138 339.343964,75.606071 
	C341.120361,70.359222 338.334259,68.364090 334.794495,66.946350 
	C330.497742,65.225418 325.913177,64.060890 321.890503,61.857224 
	C316.302948,58.796303 314.921173,54.083843 317.562653,48.633152 
	C320.472137,55.506439 326.786987,56.727814 332.618591,59.074932 
	C336.102295,60.477066 338.958160,63.439091 342.240845,66.054337 
z"/>
<path fill="#F6F6F6" opacity="1.000000" stroke="none" 
	d="
M288.223267,47.376358 
	C288.227661,56.703720 288.154205,65.688362 288.248566,74.671242 
	C288.265564,76.285919 288.974365,77.893326 289.412964,79.707733 
	C286.908997,79.707733 284.329346,79.707733 282.040833,79.707733 
	C282.040833,67.520500 282.040833,55.284901 282.040833,42.633984 
	C282.531464,42.575382 283.596497,42.378986 284.667175,42.340668 
	C285.644592,42.305691 286.628143,42.441944 287.877258,42.519360 
	C287.993317,44.128643 288.098053,45.580837 288.223267,47.376358 
z"/>
<path fill="#EDEDED" opacity="1.000000" stroke="none" 
	d="
M351.113739,61.003971 
	C351.166107,68.284966 354.327820,73.687469 361.411804,77.377472 
	C362.348755,78.494568 362.697296,79.309967 363.045837,80.125374 
	C353.800140,79.559410 347.165436,73.577461 345.401184,64.216660 
	C344.145020,57.551819 346.998535,50.466084 352.198792,48.022625 
	C351.649719,51.543465 351.131500,54.866264 350.688385,58.933571 
	C350.880219,60.120045 350.996979,60.562008 351.113739,61.003971 
z"/>
<path fill="#EFEFEF" opacity="1.000000" stroke="none" 
	d="
M260.043060,80.115356 
	C252.469269,79.625412 246.769089,76.184776 243.699203,69.146545 
	C240.310852,61.378147 241.651749,54.259022 247.972778,47.916100 
	C248.786880,47.877453 248.994904,47.905281 249.202942,47.933113 
	C248.546768,51.361118 247.890594,54.789127 247.279266,58.865414 
	C247.551987,60.009201 247.779861,60.504711 248.007721,61.000221 
	C247.863434,68.402756 251.132248,73.753967 258.289307,77.417900 
	C259.268005,78.513252 259.655548,79.314301 260.043060,80.115356 
z"/>
<path fill="#EFEFEF" opacity="1.000000" stroke="none" 
	d="
M104.363350,47.007835 
	C98.625099,57.880539 100.779785,68.466721 110.799057,77.167336 
	C111.851654,78.084656 112.513969,78.544121 113.176277,79.003578 
	C112.510963,79.256668 111.733704,79.873199 111.197258,79.707954 
	C104.001801,77.491379 98.627838,73.245193 96.648026,65.673317 
	C94.666946,58.096542 96.866135,51.683769 103.080444,46.214081 
	C103.861137,46.357529 104.112244,46.682682 104.363350,47.007835 
z"/>
<path fill="#EFEFEF" opacity="1.000000" stroke="none" 
	d="
M125.982613,74.005257 
	C131.774979,62.228996 127.950958,49.311981 117.223907,43.308144 
	C118.027870,42.821625 118.605652,42.682518 119.183426,42.543411 
	C133.838318,45.646694 138.707138,61.866833 127.981842,74.066917 
	C126.891235,74.107933 126.436920,74.056595 125.982613,74.005257 
z"/>
<path fill="#EF3030" opacity="1.000000" stroke="none" 
	d="
M17.746969,70.281586 
	C17.531868,67.255959 17.531868,64.504799 17.531868,60.878365 
	C22.550680,67.461746 26.791571,73.024704 30.871283,78.376228 
	C27.448332,78.833900 23.666466,76.654472 17.746969,70.281586 
z"/>
<path fill="#EBEBEB" opacity="1.000000" stroke="none" 
	d="
M309.191559,50.767563 
	C308.918610,52.191311 308.831573,53.731049 308.074585,54.208393 
	C306.510681,55.194580 304.589813,55.614731 302.412170,56.416279 
	C304.881134,47.914909 302.931152,45.401665 293.217010,43.582176 
	C303.226379,41.292404 306.382965,42.650101 309.191559,50.767563 
z"/>
<path fill="#ECECEC" opacity="1.000000" stroke="none" 
	d="
M374.188934,51.545612 
	C371.439819,48.660797 368.690674,45.775982 366.330231,43.299015 
	C372.142395,41.879295 379.206238,46.582973 381.764709,54.987778 
	C379.687408,54.987778 377.755829,54.987778 375.365784,54.655891 
	C374.667877,53.397869 374.428406,52.471737 374.188934,51.545612 
z"/>
<path fill="#F1F1F1" opacity="1.000000" stroke="none" 
	d="
M271.719269,52.836605 
	C268.932800,49.553421 266.146332,46.270237 263.697876,43.385288 
	C269.068085,41.949337 276.408478,47.028221 278.377502,54.958584 
	C276.485291,54.958584 274.671692,54.958584 272.427856,54.666458 
	C271.904816,53.861759 271.812042,53.349182 271.719269,52.836605 
z"/>
<path fill="#E9E9E9" opacity="1.000000" stroke="none" 
	d="
M316.022339,70.918953 
	C319.578003,74.333778 322.987701,77.418877 326.177765,80.305244 
	C323.791199,81.165405 313.800842,79.030746 313.163269,76.543549 
	C312.520142,74.034531 313.472687,71.116470 313.840302,67.144051 
	C314.962982,69.043678 315.419678,69.816452 316.022339,70.918953 
z"/>
<path fill="#EB3030" opacity="1.000000" stroke="none" 
	d="
M49.975685,37.049328 
	C47.280472,33.158318 44.704418,29.603064 42.092987,25.998983 
	C45.650463,24.833872 48.247826,27.858570 50.990009,30.230972 
	C54.562687,33.321877 54.565456,36.977505 51.999424,41.389183 
	C51.264080,39.843231 50.679459,38.614159 49.975685,37.049328 
z"/>
<path fill="#EAEAEA" opacity="1.000000" stroke="none" 
	d="
M337.494751,51.570580 
	C334.330444,48.541500 331.364044,45.807705 328.504761,43.172623 
	C332.272736,42.088978 336.977936,42.651375 339.904755,46.169861 
	C341.496582,48.083515 340.567627,52.094090 340.775635,55.158878 
	C340.345398,55.234859 339.915192,55.310841 339.484955,55.386822 
	C338.887543,54.213169 338.290131,53.039516 337.494751,51.570580 
z"/>
<path fill="#292929" opacity="1.000000" stroke="none" 
	d="
M271.320129,52.967087 
	C271.812042,53.349182 271.904816,53.861759 272.018005,54.637527 
	C271.723145,55.477791 271.496979,56.481342 271.079376,56.568565 
	C263.681000,58.113926 256.259277,59.547764 248.425171,61.002945 
	C247.779861,60.504711 247.551987,60.009201 247.385559,59.247482 
	C256.144531,60.502495 262.977966,54.586613 271.320129,52.967087 
z"/>
<path fill="#292929" opacity="1.000000" stroke="none" 
	d="
M374.007324,51.889244 
	C374.428406,52.471737 374.667877,53.397869 374.941406,54.708061 
	C376.975220,58.476395 378.974945,61.860668 380.654388,65.625191 
	C379.888947,66.005760 379.443756,66.006088 378.998596,66.006409 
	C378.525574,64.762573 378.121460,63.487118 377.567535,62.280437 
	C375.280823,57.298740 371.535339,55.155380 365.854279,56.107471 
	C368.511414,54.815941 371.168549,53.524410 374.007324,51.889244 
z"/>
<path fill="#262626" opacity="1.000000" stroke="none" 
	d="
M363.302856,80.342842 
	C362.697296,79.309967 362.348755,78.494568 361.742981,77.411560 
	C365.379974,77.143951 369.274170,77.143951 373.739349,77.143951 
	C371.100006,80.785225 367.006073,79.865944 363.302856,80.342842 
z"/>
<path fill="#262626" opacity="1.000000" stroke="none" 
	d="
M260.301147,80.334457 
	C259.655548,79.314301 259.268005,78.513252 258.617493,77.443039 
	C262.604614,76.771866 266.854706,76.369850 271.553589,75.979294 
	C272.002319,75.990746 272.059021,76.040749 272.059021,76.040756 
	C268.225769,77.545021 264.392487,79.049294 260.301147,80.334457 
z"/>
<path fill="#272727" opacity="1.000000" stroke="none" 
	d="
M125.630386,74.064392 
	C126.436920,74.056595 126.891235,74.107933 127.677490,74.247780 
	C124.117371,78.459579 119.641136,80.836739 113.481506,79.048981 
	C112.513969,78.544121 111.851654,78.084656 111.104851,77.308975 
	C116.177170,78.044968 121.169891,78.281776 125.630386,74.064392 
z"/>
<path fill="#292929" opacity="1.000000" stroke="none" 
	d="
M351.496277,61.005150 
	C350.996979,60.562008 350.880219,60.120045 350.829346,59.341400 
	C354.936737,58.716671 358.978210,58.428627 363.357788,58.116482 
	C360.412567,62.334862 355.862610,60.752636 351.496277,61.005150 
z"/>
<path fill="#262626" opacity="1.000000" stroke="none" 
	d="
M274.945557,70.152428 
	C274.974426,67.763359 274.974426,65.747414 274.974426,63.731464 
	C275.633789,63.736797 276.293182,63.742130 276.952545,63.747467 
	C279.005768,66.694199 277.871429,69.647781 275.629272,73.721497 
	C275.243286,71.990280 275.079987,71.257919 274.945557,70.152428 
z"/>
<path fill="#272727" opacity="1.000000" stroke="none" 
	d="
M118.921112,42.202774 
	C118.605652,42.682518 118.027870,42.821625 117.143753,42.958801 
	C114.460480,42.956875 112.083557,42.956875 109.706627,42.956875 
	C109.674149,42.457706 109.641670,41.958538 109.609192,41.459370 
	C112.556648,40.890015 115.508774,40.368206 118.921112,42.202774 
z"/>
<path fill="#262626" opacity="1.000000" stroke="none" 
	d="
M375.454742,75.398331 
	C376.516418,73.233070 377.677917,71.366310 379.548737,68.359573 
	C379.651245,72.753433 379.986420,75.677551 375.454742,75.398331 
z"/>
<path fill="#292929" opacity="1.000000" stroke="none" 
	d="
M249.492737,47.795086 
	C248.994904,47.905281 248.786880,47.877453 248.283188,47.741547 
	C248.858109,46.446499 249.728699,45.259537 250.599304,44.072575 
	C251.031296,44.397667 251.463287,44.722763 251.895294,45.047859 
	C251.191040,45.917591 250.486801,46.787327 249.492737,47.795086 
z"/>
<path fill="#272727" opacity="1.000000" stroke="none" 
	d="
M104.664482,46.938957 
	C104.112244,46.682682 103.861137,46.357529 103.303940,45.958393 
	C103.989059,45.373291 104.980286,44.862171 105.971512,44.351051 
	C105.636215,45.190727 105.300911,46.030403 104.664482,46.938957 
z"/>
<path fill="#262626" opacity="1.000000" stroke="none" 
	d="
M273.023804,57.967255 
	C273.583832,58.555527 274.152069,59.136833 274.676361,59.755402 
	C274.699310,59.782490 274.319458,60.150959 274.127258,60.360416 
	C273.751740,59.793919 273.376221,59.227413 273.000061,58.329346 
	C272.999420,57.997780 273.023804,57.967255 273.023804,57.967255 
z"/>
<path fill="#262626" opacity="1.000000" stroke="none" 
	d="
M379.051270,66.281601 
	C379.443756,66.006088 379.888947,66.005760 380.668030,66.005325 
	C380.682861,66.478493 380.363800,66.951790 380.044739,67.425079 
	C379.731110,67.135643 379.417511,66.846214 379.051270,66.281601 
z"/>
<path fill="#292929" opacity="1.000000" stroke="none" 
	d="
M363.073181,42.882912 
	C362.833710,43.302593 362.446869,43.554127 362.060028,43.805672 
	C361.967407,43.553059 361.874786,43.300442 361.782166,43.047821 
	C362.163361,42.936802 362.544586,42.825783 363.073181,42.882912 
z"/>
<path fill="#292929" opacity="1.000000" stroke="none" 
	d="
M254.177048,43.609276 
	C253.989410,43.647495 253.881775,43.597397 253.774139,43.547302 
	C253.935104,43.538521 254.096085,43.529739 254.177048,43.609276 
z"/>
<path fill="#262626" opacity="1.000000" stroke="none" 
	d="
M271.977844,75.961945 
	C271.953369,75.933136 272.235352,75.613472 272.235352,75.613472 
	C272.235352,75.613472 272.245422,75.917328 272.152222,75.979034 
	C272.059021,76.040749 272.002319,75.990746 271.977844,75.961945 
z"/>
<path fill="#262626" opacity="1.000000" stroke="none" 
	d="
M272.984375,58.010197 
	C272.969360,58.022614 272.636017,57.776562 272.636017,57.776562 
	C272.636017,57.776562 272.914703,57.778534 272.969238,57.872894 
	C273.023804,57.967255 272.999420,57.997780 272.984375,58.010197 
z"/>
<path fill="#292929" opacity="1.000000" stroke="none" 
	d="
M353.476196,46.517311 
	C353.461334,46.485748 353.491058,46.548870 353.476196,46.517311 
z"/>
</svg>